<?xml version="1.0" encoding="UTF-8" standalone="no"?><!DOCTYPE svg PUBLIC "-//W3C//DTD SVG 1.1//EN" "http://www.w3.org/Graphics/SVG/1.1/DTD/svg11.dtd"><svg width="88px" height="93px" version="1.1" xmlns="http://www.w3.org/2000/svg" xmlns:xlink="http://www.w3.org/1999/xlink" xml:space="preserve" xmlns:serif="http://www.serif.com/" style="fill-rule:evenodd;clip-rule:evenodd;stroke-linejoin:round;stroke-miterlimit:2;"><g><g id="group-online-2"><path id="Shape" d="M60.41,54.58l-2.54,-22.27c-0.6,-5.31 -4.8,-9.31 -9.76,-9.31l-9.79,0c-4.95,0 -9.15,4 -9.76,9.31l-2.54,22.27c-0.21,1.86 0.37,3.71 1.58,5.07c1.04,1.17 2.43,1.85 3.93,1.93l2.12,28.65c0.07,1 0.9,1.77 1.9,1.77l15.33,-0c1,-0 1.84,-0.77 1.91,-1.77l2.11,-28.65c1.5,-0.08 2.89,-0.76 3.94,-1.93c1.21,-1.36 1.78,-3.21 1.57,-5.07Zm-4.42,2.51c-0.23,0.25 -0.7,0.67 -1.41,0.67l-1.46,0c-1,0 -1.83,0.77 -1.91,1.77l-2.11,28.64l-11.76,0l-2.11,-28.64c-0.08,-1 -0.91,-1.77 -1.91,-1.77l-1.46,0c-0.7,0 -1.18,-0.42 -1.4,-0.67c-0.49,-0.54 -0.72,-1.3 -0.63,-2.08l2.54,-22.27c0.38,-3.36 2.95,-5.91 5.96,-5.91l9.78,0c3.01,0 5.58,2.55 5.96,5.91l2.54,22.27c0.09,0.78 -0.14,1.54 -0.62,2.08Zm-29.98,6.6c-1.07,-0.1 -1.97,0.72 -2.05,1.78l-1.35,18.86l-11.76,0l-1.78,-25.05c-0.08,-1 -0.91,-1.78 -1.92,-1.78l-1.4,0c-0.57,0 -1.07,-0.23 -1.44,-0.65c-0.37,-0.42 -0.53,-0.95 -0.47,-1.5l2.46,-19.65c0.36,-2.87 2.8,-5.03 5.7,-5.03l9.46,0c0.43,0 0.89,0.06 1.44,0.21c1.03,0.25 2.08,-0.34 2.35,-1.37c0.26,-1.02 -0.35,-2.07 -1.37,-2.34c-0.89,-0.23 -1.65,-0.34 -2.42,-0.34l-9.46,0c-4.82,0 -8.9,3.61 -9.5,8.4l-2.46,19.64c-0.2,1.64 0.31,3.28 1.4,4.52c1.01,1.14 2.42,1.83 3.93,1.93l1.79,25.07c0.07,1 0.91,1.78 1.91,1.78l15.32,0c1,0 1.84,-0.78 1.91,-1.78l1.48,-20.65c0.07,-1.06 -0.72,-1.97 -1.77,-2.05Zm61.04,-8.82l-2.46,-19.64c-0.59,-4.79 -4.68,-8.39 -9.5,-8.39l-9.46,0c-1.06,0 -2.14,0.19 -3.19,0.56c-1,0.35 -1.52,1.45 -1.16,2.45c0.35,0.99 1.44,1.52 2.44,1.16c0.64,-0.22 1.28,-0.34 1.91,-0.34l9.46,0c2.89,0 5.34,2.17 5.7,5.04l2.46,19.64c0.07,0.55 -0.1,1.09 -0.47,1.51c-0.36,0.41 -0.87,0.64 -1.43,0.64l-1.41,0c-1.01,0 -1.84,0.78 -1.91,1.78l-1.79,25.06l-11.76,0l-1.38,-19.31c-0.07,-1.06 -1,-1.88 -2.04,-1.78c-1.06,0.08 -1.85,1 -1.78,2.05l1.51,21.09c0.08,1 0.91,1.78 1.91,1.78l15.33,0c1,0 1.84,-0.78 1.9,-1.78l1.79,-25.06c1.51,-0.1 2.93,-0.79 3.93,-1.94c1.1,-1.24 1.61,-2.88 1.4,-4.52Zm-16.69,-31.87c5.28,0 9.58,-4.3 9.58,-9.58c-0,-5.29 -4.29,-9.59 -9.58,-9.59c-5.28,0 -9.57,4.3 -9.57,9.59c-0,5.28 4.29,9.58 9.57,9.58Zm-53.63,0c5.28,0 9.58,-4.3 9.58,-9.58c-0,-5.29 -4.3,-9.59 -9.58,-9.59c-5.28,0 -9.58,4.3 -9.58,9.59c-0,5.28 4.3,9.58 9.58,9.58Zm26.49,-3.83c5.28,0 9.57,-4.3 9.57,-9.59c-0,-5.28 -4.29,-9.58 -9.57,-9.58c-5.28,0 -9.58,4.3 -9.58,9.58c-0,5.29 4.3,9.59 9.58,9.59Zm27.14,-11.5c3.17,0 5.75,2.58 5.75,5.75c-0,3.17 -2.57,5.75 -5.75,5.75c-3.17,0 -5.74,-2.58 -5.74,-5.75c-0,-3.17 2.58,-5.75 5.74,-5.75Zm-53.63,0c3.17,0 5.75,2.58 5.75,5.75c-0,3.17 -2.58,5.75 -5.75,5.75c-3.17,0 -5.75,-2.58 -5.75,-5.75c-0,-3.17 2.58,-5.75 5.75,-5.75Zm26.49,-3.84c3.16,0 5.74,2.58 5.74,5.75c-0,3.17 -2.58,5.75 -5.74,5.75c-3.17,0 -5.75,-2.58 -5.75,-5.75c-0,-3.17 2.58,-5.75 5.75,-5.75Z" style="fill:#fff;"/></g></g></svg>