<?xml version="1.0" encoding="UTF-8" standalone="no"?><!DOCTYPE svg PUBLIC "-//W3C//DTD SVG 1.1//EN" "http://www.w3.org/Graphics/SVG/1.1/DTD/svg11.dtd"><svg width="76px" height="92px" version="1.1" xmlns="http://www.w3.org/2000/svg" xmlns:xlink="http://www.w3.org/1999/xlink" xml:space="preserve" xmlns:serif="http://www.serif.com/" style="fill-rule:evenodd;clip-rule:evenodd;stroke-linejoin:round;stroke-miterlimit:2;"><g><g id="donate"><path id="Shape" d="M18.326,74c-2.894,0 -5.721,-1.41 -7.437,-4c-1.082,-1.63 -1.6,-3.51 -1.5,-5.42c-0.272,-0.18 -0.503,-0.43 -0.66,-0.75l-7.709,-15.47c-1.477,-2.95 -1.343,-6.41 0.353,-9.25l7.966,-13.32c1.109,-1.86 2.836,-3.3 4.858,-4.06l28.187,-10.61c0.503,-0.18 1.055,-0.16 1.531,0.08l23.022,11.55c0.86,0.43 1.27,1.43 0.96,2.35c-0.142,0.41 -3.519,10.22 -11.696,23.48c-7.77,12.61 -18.026,15.7 -20.091,16.2l-13.184,7.93c-1.446,0.87 -3.035,1.29 -4.6,1.29Zm5.418,-39.98c0.471,-0 0.943,0.2 1.331,0.5c0.042,0.04 4.34,3.43 10.306,3.43c0.775,-0 1.478,0.47 1.773,1.19c0.299,0.72 0.134,1.55 -0.414,2.1c-3.427,3.44 -6.922,9.07 -7.118,10.28c-0.004,1.06 -0.856,1.83 -1.915,1.83c0.039,0.04 -1.822,0.77 -12.133,7.35c-1.166,0.75 -1.964,1.9 -2.252,3.26c-0.284,1.36 -0.019,2.74 0.748,3.9c1.52,2.29 4.539,2.97 6.876,1.56l13.445,-8.09c0.188,-0.12 0.399,-0.2 0.614,-0.24c0.1,-0.02 10.36,-2.24 17.927,-14.52c6.086,-9.88 9.474,-17.89 10.74,-21.14l-20.732,-10.4l-27.396,10.3c-1.213,0.46 -2.249,1.32 -2.916,2.44l-7.966,13.32c-1.021,1.7 -1.098,3.78 -0.211,5.55l6.569,13.19c0.66,-0.94 1.504,-1.74 2.498,-2.38c1.527,-0.97 2.881,-1.83 4.086,-2.58c-0.533,-0.8 -1.12,-1.44 -1.446,-1.52c-1.059,-0 -1.877,-0.86 -1.877,-1.93c0,-3.25 -3.188,-6.25 -3.219,-6.28c-0.579,-0.54 -0.771,-1.38 -0.483,-2.12c0.287,-0.73 0.99,-1.22 1.78,-1.22c1.585,-0.18 8.952,-4.36 9.627,-6.01c0,-0.74 0.407,-1.29 1.075,-1.61c0.218,-0.11 0.448,-0.16 0.683,-0.16Zm-5.752,15.94c1.239,0.64 2.221,1.84 2.889,2.89c2.728,-1.65 4.286,-2.49 5.23,-2.91c0.825,-2.3 3.112,-5.74 5.353,-8.53c-3.012,-0.59 -5.422,-1.75 -6.953,-2.65c-1.992,2.33 -5.917,4.62 -8.852,5.88c0.967,1.36 1.987,3.22 2.333,5.32Z" style="fill:#fff;"/><path id="Path" d="M16,85c-1.104,0 -2,-0.9 -2,-2l0,-10c0,-1.1 0.896,-2 2,-2c1.104,0 2,0.9 2,2l0,10c0,1.1 -0.896,2 -2,2Z" style="fill:#fff;fill-rule:nonzero;"/><path id="Shape1" serif:id="Shape" d="M69.147,28c-0.909,0 -1.786,-0.2 -2.613,-0.61l-29.454,-14.32c-0.526,-0.25 -0.905,-0.72 -1.033,-1.29c-0.129,-0.56 0.011,-1.14 0.382,-1.59l7.799,-9.48c0.55,-0.66 1.49,-0.89 2.289,-0.56l27.297,11.38c0.722,0.3 1.186,0.99 1.186,1.74l0,9.04c0,1.56 -0.632,3.01 -1.782,4.09c-1.084,1.02 -2.57,1.6 -4.071,1.6Zm-28.163,-17.27l27.297,13.27c0.749,0.37 1.646,0.21 2.234,-0.34c0.266,-0.25 0.585,-0.68 0.585,-1.35l0,-7.79l-24.751,-10.31l-5.365,6.52Z" style="fill:#fff;"/><path id="Shape2" serif:id="Shape" d="M15.498,92c-7.443,0 -13.498,-6.03 -13.498,-13.43c0,-5.47 3.29,-10.35 8.376,-12.43c0.984,-0.4 2.11,0.07 2.515,1.04c0.127,0.31 0.282,0.61 0.474,0.9c1.474,2.2 4.624,2.92 6.911,1.55l2.006,-1.19c0.725,-0.44 1.658,-0.35 2.291,0.23c2.811,2.56 4.427,6.16 4.427,9.9c-0.004,7.4 -6.059,13.43 -13.502,13.43Zm-5.164,-21.54c-2.765,1.74 -4.478,4.77 -4.478,8.1c0,5.29 4.328,9.6 9.642,9.6c5.314,0 9.642,-4.31 9.642,-9.6c0,-2.23 -0.772,-4.33 -2.199,-6.04l-0.682,0.4c-3.899,2.33 -9.302,1.19 -11.925,-2.46Z" style="fill:#fff;"/></g></g></svg>