<?xml version="1.0" encoding="UTF-8" standalone="no"?><!DOCTYPE svg PUBLIC "-//W3C//DTD SVG 1.1//EN" "http://www.w3.org/Graphics/SVG/1.1/DTD/svg11.dtd"><svg width="92px" height="58px" version="1.1" xmlns="http://www.w3.org/2000/svg" xmlns:xlink="http://www.w3.org/1999/xlink" xml:space="preserve" xmlns:serif="http://www.serif.com/" style="fill-rule:evenodd;clip-rule:evenodd;stroke-linejoin:round;stroke-miterlimit:2;"><g><g id="handshake"><path id="Path" d="M45.714,57.42c-2.359,0 -5.406,-1.31 -6.82,-2.24c-1.714,-1.12 -10.313,-7.58 -17.468,-13.57c-1.191,-0.99 -2.962,-2.84 -4.676,-4.63c-1.272,-1.33 -2.424,-2.55 -3.02,-3.05c-0.811,-0.68 -0.91,-1.89 -0.227,-2.7c0.68,-0.82 1.891,-0.92 2.709,-0.23c0.654,0.55 1.925,1.87 3.316,3.32c1.568,1.64 3.343,3.49 4.369,4.35c7.304,6.11 15.761,12.41 17.11,13.3c1.126,0.75 3.427,1.61 4.707,1.61c1.798,0 1.963,-0.46 2.036,-0.65c0.219,-0.61 0.723,-1.06 1.349,-1.21c0.619,-0.15 1.279,0.01 1.756,0.44c0.765,0.7 1.618,0.57 2.205,0.35c1.218,-0.48 2.152,-1.69 2.267,-2.95c0.07,-0.72 0.546,-1.36 1.23,-1.61c0.684,-0.26 1.456,-0.11 1.994,0.39c0.48,0.45 1.764,0.55 2.993,-0.07c0.484,-0.24 1.603,-0.94 1.472,-2.16c-0.081,-0.74 0.28,-1.47 0.926,-1.85c0.642,-0.39 1.452,-0.36 2.075,0.06c0.565,0.4 1.606,0.19 2.367,-0.46c0.518,-0.44 1.283,-1.41 0.572,-2.88c-1.441,-3 -7.846,-8.17 -13.494,-12.74c-3.124,-2.52 -6.09,-4.92 -8.288,-6.98c-0.561,0.23 -0.984,0.41 -1.345,0.58c-0.999,0.45 -1.664,0.72 -2.885,0.91c-2.959,3.92 -6.932,5.3 -11.285,3.86c-1.737,-0.57 -2.905,-1.8 -3.301,-3.46c-0.922,-3.89 2.647,-9.21 5.276,-11.83c6.904,-6.9 11.738,-9.49 20.548,-5.56c7.562,3.38 15.139,6.03 15.216,6.05c1.003,0.35 1.529,1.45 1.184,2.45c-0.35,1 -1.437,1.53 -2.448,1.18c-0.077,-0.03 -7.808,-2.72 -15.523,-6.17c-6.801,-3.04 -10.021,-1.47 -16.265,4.77c-2.624,2.62 -4.649,6.54 -4.246,8.23c0.058,0.24 0.166,0.5 0.765,0.7c1.879,0.63 4.692,0.97 7.408,-3.08c0.319,-0.48 0.834,-0.79 1.406,-0.84c1.295,-0.14 1.618,-0.28 2.579,-0.71c0.63,-0.28 1.429,-0.64 2.724,-1.11c0.695,-0.25 1.483,-0.08 2.009,0.45c2.102,2.1 5.399,4.76 8.888,7.58c6.255,5.06 12.729,10.29 14.539,14.06c1.276,2.64 0.669,5.58 -1.537,7.46c-1.302,1.12 -2.878,1.66 -4.407,1.58c-0.553,1.39 -1.667,2.57 -3.208,3.35c-1.576,0.79 -3.309,1.01 -4.822,0.69c-0.815,1.65 -2.252,3.01 -4,3.69c-1.48,0.58 -3.017,0.57 -4.369,0.05c-1.011,0.85 -2.467,1.28 -4.361,1.28Z" style="fill:#fff;fill-rule:nonzero;"/><path id="Path1" serif:id="Path" d="M37.903,11.75l-17.083,0c-1.048,0 -1.898,-0.88 -1.898,-1.96c0,-1.08 0.85,-1.96 1.898,-1.96l17.083,0c1.048,0 1.898,0.88 1.898,1.96c0,1.08 -0.85,1.96 -1.898,1.96Z" style="fill:#fff;fill-rule:nonzero;"/><path id="Path2" serif:id="Path" d="M71.022,42.41c-0.597,-0 -1.184,-0.31 -1.543,-0.87c-0.572,-0.91 -0.346,-2.13 0.504,-2.74l5.425,-3.88c0.849,-0.61 1.999,-0.37 2.574,0.54c0.572,0.9 0.345,2.13 -0.504,2.74l-5.425,3.88c-0.319,0.22 -0.679,0.33 -1.031,0.33Z" style="fill:#fff;fill-rule:nonzero;"/><path id="Path3" serif:id="Path" d="M64.672,47.63c-0.405,0 -0.818,-0.13 -1.159,-0.4c-1.977,-1.56 -10.481,-10.42 -11.445,-11.43c-0.716,-0.75 -0.694,-1.94 0.057,-2.65c0.746,-0.72 1.935,-0.7 2.652,0.05c3.713,3.88 9.719,10.02 11.062,11.08c0.814,0.64 0.952,1.82 0.311,2.63c-0.375,0.47 -0.927,0.72 -1.478,0.72Z" style="fill:#fff;fill-rule:nonzero;"/><path id="Path4" serif:id="Path" d="M57.418,51.55c-0.427,-0 -0.862,-0.15 -1.222,-0.43c-2.905,-2.33 -9.936,-9.92 -10.007,-9.99c-0.732,-0.8 -0.677,-2.04 0.118,-2.77c0.799,-0.73 2.032,-0.68 2.768,0.12c1.331,1.44 7.223,7.71 9.568,9.58c0.842,0.68 0.979,1.91 0.305,2.75c-0.387,0.48 -0.959,0.74 -1.53,0.74Z" style="fill:#fff;fill-rule:nonzero;"/><path id="Path5" serif:id="Path" d="M49.586,55.46c-0.446,0 -0.893,-0.15 -1.261,-0.46c-2.885,-2.43 -8.349,-8.23 -9.954,-9.95c-0.736,-0.79 -0.697,-2.02 0.094,-2.76c0.786,-0.74 2.027,-0.7 2.767,0.09c1.116,1.2 6.827,7.27 9.618,9.63c0.826,0.69 0.932,1.92 0.235,2.75c-0.387,0.46 -0.943,0.7 -1.499,0.7Z" style="fill:#fff;fill-rule:nonzero;"/><path id="Shape" d="M13.322,38.5l-11.419,0c-1.05,0 -1.903,-0.87 -1.903,-1.93l-0,-34.65c-0,-0.53 0.217,-1.04 0.598,-1.4c0.38,-0.36 0.879,-0.54 1.419,-0.52c3.921,0.24 16.965,1.25 20.227,4.38c0.422,0.4 0.635,0.97 0.586,1.56c-0.864,10.01 -7.422,30.37 -7.7,31.23c-0.255,0.79 -0.986,1.33 -1.808,1.33Zm-9.516,-3.85l8.127,0c1.415,-4.52 5.979,-19.5 6.988,-27.93c-2.398,-1.18 -8.998,-2.24 -15.115,-2.73l0,30.66Z" style="fill:#fff;"/><path id="Shape1" serif:id="Shape" d="M90.084,42.41l-11.494,-0c-0.862,-0 -1.617,-0.58 -1.847,-1.41c-1.425,-5.19 -8.839,-26.46 -11.207,-30.3c-0.287,-0.46 -0.364,-1.03 -0.21,-1.56c0.153,-0.52 0.524,-0.96 1.023,-1.2c0.348,-0.16 8.693,-4.03 23.735,-4.03c1.058,-0 1.916,0.86 1.916,1.93l0,34.65c0,1.06 -0.858,1.92 -1.916,1.92Zm-10.061,-3.85l8.146,-0l0,-30.77c-9.115,0.21 -15.395,1.93 -18.319,2.92c2.993,6.41 8.357,21.91 10.173,27.85Z" style="fill:#fff;"/></g></g></svg>