<?xml version="1.0" encoding="UTF-8" standalone="no"?><!DOCTYPE svg PUBLIC "-//W3C//DTD SVG 1.1//EN" "http://www.w3.org/Graphics/SVG/1.1/DTD/svg11.dtd"><svg width="46px" height="46px" version="1.1" xmlns="http://www.w3.org/2000/svg" xmlns:xlink="http://www.w3.org/1999/xlink" xml:space="preserve" xmlns:serif="http://www.serif.com/" style="fill-rule:evenodd;clip-rule:evenodd;stroke-linecap:square;stroke-miterlimit:1;"><path d="M23,45c12.151,0 22,-9.849 22,-22c-0,-12.151 -9.849,-22 -22,-22c-12.149,0 -22,9.849 -22,22c-0,12.151 9.849,22 22,22Zm-0,-41.25c10.632,0 19.25,8.618 19.25,19.25c-0,10.632 -8.618,19.25 -19.25,19.25c-10.632,0 -19.25,-8.618 -19.25,-19.25c-0,-10.632 8.618,-19.25 19.25,-19.25Zm-6.237,30.987c0.538,0.538 1.408,0.538 1.944,0l10.529,-10.528c0.33,-0.33 0.431,-0.781 0.356,-1.209c0.075,-0.426 -0.028,-0.879 -0.356,-1.209l-10.529,-10.528c-0.537,-0.536 -1.408,-0.536 -1.944,0c-0.538,0.538 -0.538,1.408 -0,1.944l9.793,9.793l-9.792,9.791c-0.537,0.538 -0.537,1.408 -0.001,1.946Z" style="fill:#3ad5e4;fill-rule:nonzero;stroke:#39d4e4;stroke-width:1px;"/></svg>