<?xml version="1.0" encoding="UTF-8" standalone="no"?><!DOCTYPE svg PUBLIC "-//W3C//DTD SVG 1.1//EN" "http://www.w3.org/Graphics/SVG/1.1/DTD/svg11.dtd"><svg width="211px" height="67px" version="1.1" xmlns="http://www.w3.org/2000/svg" xmlns:xlink="http://www.w3.org/1999/xlink" xml:space="preserve" xmlns:serif="http://www.serif.com/" style="fill-rule:evenodd;clip-rule:evenodd;"><g id="Page-1"><g id="Artboard-1"><g id="BittrexButton"><g id="Group-25"><g id="Group-32"><path id="Fill-4-Copy" d="M14.753,65.397c-0.538,-0 -1.062,-0.007 -1.594,-0.019c-0.988,-0.025 -2.158,-0.078 -3.299,-0.272c-1.076,-0.185 -2.032,-0.486 -2.921,-0.917c-0.921,-0.442 -1.748,-1.014 -2.464,-1.7c-0.73,-0.681 -1.332,-1.461 -1.801,-2.338c-0.457,-0.844 -0.769,-1.751 -0.958,-2.772c-0.215,-1.126 -0.27,-2.267 -0.293,-3.137c-0.012,-0.353 -0.026,-1.528 -0.026,-1.528l-0,-38.65c-0,-0 0.016,-1.156 0.026,-1.496c0.023,-0.877 0.078,-2.018 0.291,-3.132c0.189,-1.027 0.501,-1.934 0.96,-2.781c0.467,-0.878 1.069,-1.663 1.79,-2.339c0.729,-0.692 1.56,-1.266 2.473,-1.711c0.907,-0.437 1.861,-0.735 2.916,-0.911c1.189,-0.2 2.392,-0.252 3.309,-0.274l1.591,-0.02l181.275,-0l1.61,0.022c0.905,0.02 2.11,0.072 3.28,0.271c1.062,0.177 2.025,0.477 2.947,0.917c0.905,0.44 1.732,1.014 2.454,1.7c0.725,0.679 1.326,1.469 1.806,2.349c0.455,0.855 0.764,1.761 0.945,2.759c0.203,1.055 0.267,2.139 0.306,3.157c0.005,0.473 0.005,0.984 0.005,1.489c0.016,0.627 0.016,1.225 0.016,1.827l-0,35.016c-0,0.608 -0,1.202 -0.016,1.799c-0,0.544 -0,1.042 -0.007,1.556c-0.037,0.986 -0.101,2.068 -0.302,3.1c-0.183,1.026 -0.492,1.933 -0.952,2.794c-0.475,0.87 -1.08,1.655 -1.791,2.319c-0.73,0.7 -1.557,1.27 -2.467,1.71c-0.918,0.442 -1.851,0.735 -2.944,0.921c-1.129,0.194 -2.299,0.247 -3.297,0.272c-0.515,0.012 -1.059,0.019 -1.584,0.019l-1.912,0.003l-179.372,-0.003" style="fill-opacity:0.99;stroke:url(#_Linear1);stroke-width:2px;"/></g></g><path id="Combined-Shape" d="M49.147,17.65l-0,22.5l-22.5,-0l-0,-9l-4.501,-0l-0,13.5l13.5,-0l0.001,-1.681l4.5,-0l-0,6.181l-22.5,-0l-0,-22.5l22.5,-0l-0,9l4.501,-0l-0,-13.5l-13.5,-0l-0.001,1.681l-4.5,0l-0,-6.181l22.5,-0Zm-13.501,13.5l-4.499,-0l0.001,4.5l4.499,-0l-0.001,-4.5Z" style="fill:#fff;fill-rule:nonzero;"/><g id="Group-33"><path id="Buyon" d="M65.257,27.4c2.578,0 3.644,-1.257 3.644,-2.898c-0,-1.726 -1.193,-2.663 -2.195,-2.727l0,-0.106c0.938,-0.256 1.769,-0.874 1.769,-2.28c-0,-1.598 -1.066,-2.898 -3.345,-2.898l-3.814,0l-0,10.909l3.941,0Zm-0.17,-6.115l-2.45,0l-0,-3.622l2.493,-0c1.448,-0 2.088,0.767 2.088,1.726c-0,1.15 -0.938,1.896 -2.131,1.896Zm0.17,4.943l-2.62,0l-0,-3.792l2.684,-0c1.428,-0 2.323,0.958 2.323,2.066c-0,0.959 -0.661,1.726 -2.387,1.726Zm8.294,1.279c1.236,-0 2.046,-0.661 2.429,-1.492l0.085,0l0,1.385l1.258,0l-0,-8.182l-1.258,0l0,4.837c0,1.534 -1.171,2.237 -2.109,2.237c-1.044,0 -1.79,-0.767 -1.79,-1.96l0,-5.114l-1.257,0l0,5.199c0,2.088 1.108,3.09 2.642,3.09Zm6.888,2.961c1.134,0 1.933,-0.602 2.408,-1.875l3.472,-9.375l-1.363,0l-2.259,6.52l-0.085,0l-2.258,-6.52l-1.364,0l3.026,8.225l-0.235,0.639c-0.458,1.246 -1.023,1.363 -1.939,1.129l-0.319,1.108c0.128,0.064 0.49,0.149 0.916,0.149Zm15.096,-2.898c2.216,0 3.707,-1.683 3.707,-4.218c0,-2.557 -1.491,-4.24 -3.707,-4.24c-2.216,-0 -3.707,1.683 -3.707,4.24c-0,2.535 1.491,4.218 3.707,4.218Zm0,-1.129c-1.683,0 -2.45,-1.449 -2.45,-3.089c-0,-1.641 0.767,-3.111 2.45,-3.111c1.683,-0 2.45,1.47 2.45,3.111c0,1.64 -0.767,3.089 -2.45,3.089Zm6.888,0.959l-0,-4.922c-0,-1.427 0.884,-2.237 2.088,-2.237c1.166,-0 1.875,0.762 1.875,2.045l-0,5.114l1.257,0l-0,-5.199c-0,-2.088 -1.113,-3.089 -2.77,-3.089c-1.236,-0 -2.003,0.554 -2.386,1.385l-0.107,-0l0,-1.279l-1.214,0l-0,8.182l1.257,0Z" style="fill:#fff;fill-rule:nonzero;"/><path id="BittrexGlobal" d="M67.375,49.4c3.267,0 5.007,-1.705 5.007,-4.02c0,-2.152 -1.541,-3.452 -3.196,-3.53l0,-0.142c1.513,-0.341 2.628,-1.413 2.628,-3.125c0,-2.18 -1.619,-3.728 -4.829,-3.728l-5.824,-0l-0,14.545l6.214,0Zm-0.859,-8.459l-2.28,0l0,-3.601l2.337,0c1.363,0 2.138,0.704 2.138,1.755c-0,1.15 -0.938,1.846 -2.195,1.846Zm0.227,5.945l-2.507,-0l0,-3.864l2.578,0c1.478,0 2.394,0.852 2.394,2.053c-0,1.094 -0.746,1.811 -2.465,1.811Zm9.106,-9.801c0.902,-0 1.64,-0.689 1.64,-1.534c0,-0.838 -0.738,-1.527 -1.64,-1.527c-0.895,-0 -1.634,0.689 -1.634,1.527c0,0.845 0.739,1.534 1.634,1.534Zm1.505,12.315l0,-10.909l-3.025,0l-0,10.909l3.025,0Zm6.783,0.149c0.781,-0.028 1.335,-0.185 1.641,-0.284l-0.476,-2.251c-0.149,0.028 -0.469,0.099 -0.753,0.099c-0.604,0 -1.023,-0.227 -1.023,-1.065l0,-5.284l2.053,-0l0,-2.273l-2.053,0l0,-2.614l-3.025,0l-0,2.614l-1.492,0l0,2.273l1.492,-0l-0,5.681c-0.014,2.138 1.442,3.196 3.636,3.104Zm7.777,0c0.782,-0.028 1.336,-0.185 1.641,-0.284l-0.476,-2.251c-0.149,0.028 -0.469,0.099 -0.753,0.099c-0.603,0 -1.022,-0.227 -1.022,-1.065l-0,-5.284l2.052,-0l0,-2.273l-2.052,0l-0,-2.614l-3.026,0l0,2.614l-1.491,0l-0,2.273l1.491,-0l0,5.681c-0.014,2.138 1.442,3.196 3.636,3.104Zm6.442,-0.149l0,-6.172c0,-1.342 0.981,-2.265 2.316,-2.265c0.419,-0 0.994,0.071 1.278,0.163l0,-2.685c-0.27,-0.064 -0.646,-0.106 -0.952,-0.106c-1.221,-0 -2.222,0.71 -2.62,2.059l-0.114,0l0,-1.903l-2.933,0l-0,10.909l3.025,0Zm9.617,0.213c2.699,0 4.517,-1.314 4.943,-3.338l-2.798,-0.185c-0.305,0.831 -1.087,1.265 -2.095,1.265c-1.513,-0 -2.472,-1.002 -2.472,-2.628l0,-0.007l7.429,-0l0,-0.831c0,-3.708 -2.244,-5.54 -5.128,-5.54c-3.21,-0 -5.291,2.28 -5.291,5.646c0,3.459 2.053,5.618 5.412,5.618Zm2.159,-6.768l-4.581,-0c0.064,-1.243 1.009,-2.238 2.351,-2.238c1.314,0 2.223,0.938 2.23,2.238Zm7.06,6.555l2.117,-3.771l2.152,3.771l3.089,0l-3.246,-5.454l3.161,-5.455l-3.104,0l-2.052,3.814l-2.003,-3.814l-3.125,0l3.125,5.455l-3.239,5.454l3.125,0Zm20.384,0.199c3.672,-0 6.293,-2.323 6.293,-6.151l-0,-1.832l-6.087,-0l0,2.315l3.125,0c-0.043,1.804 -1.271,2.948 -3.317,2.948c-2.308,-0 -3.764,-1.726 -3.764,-4.766c0,-3.025 1.513,-4.737 3.736,-4.737c1.584,-0 2.656,0.817 3.047,2.18l3.125,0c-0.398,-2.876 -2.933,-4.9 -6.222,-4.9c-3.842,-0 -6.804,2.77 -6.804,7.486c0,4.602 2.77,7.457 6.868,7.457Zm11.577,-0.199l0,-14.545l-3.025,-0l-0,14.545l3.025,0Zm7.351,0.213c3.31,0 5.369,-2.266 5.369,-5.625c0,-3.381 -2.059,-5.639 -5.369,-5.639c-3.309,-0 -5.369,2.258 -5.369,5.639c-0,3.359 2.06,5.625 5.369,5.625Zm0.014,-2.344c-1.527,0 -2.308,-1.399 -2.308,-3.302c0,-1.904 0.781,-3.31 2.308,-3.31c1.499,0 2.28,1.406 2.28,3.31c0,1.903 -0.781,3.302 -2.28,3.302Zm13.609,2.309c2.485,-0 4.424,-1.968 4.424,-5.618c0,-3.75 -2.024,-5.611 -4.417,-5.611c-1.826,-0 -2.699,1.087 -3.104,1.974l-0.092,0l-0,-5.468l-3.026,-0l0,14.545l2.983,0l0,-1.747l0.135,-0c0.419,0.909 1.335,1.925 3.097,1.925Zm-0.959,-2.408c-1.456,-0 -2.294,-1.278 -2.294,-3.224c-0,-1.946 0.824,-3.189 2.294,-3.189c1.498,-0 2.294,1.299 2.294,3.189c-0,1.903 -0.81,3.224 -2.294,3.224Zm10.511,2.436c1.613,-0 2.657,-0.703 3.189,-1.719l0.085,0l0,1.513l2.87,0l-0,-7.358c-0,-2.599 -2.202,-3.693 -4.631,-3.693c-2.613,-0 -4.332,1.25 -4.751,3.239l2.798,0.227c0.206,-0.725 0.852,-1.257 1.939,-1.257c1.03,-0 1.619,0.518 1.619,1.413l0,0.043c0,0.703 -0.746,0.795 -2.642,0.98c-2.159,0.199 -4.098,0.923 -4.098,3.359c0,2.159 1.541,3.253 3.622,3.253Zm0.867,-2.088c-0.931,-0 -1.598,-0.433 -1.598,-1.264c-0,-0.853 0.703,-1.272 1.768,-1.421c0.661,-0.092 1.74,-0.248 2.103,-0.49l-0,1.158c-0,1.143 -0.945,2.017 -2.273,2.017Zm10.661,1.882l-0,-14.545l-3.026,-0l0,14.545l3.026,0Z" style="fill:#fff;fill-rule:nonzero;"/></g></g></g></g><defs><linearGradient id="_Linear1" x1="0" y1="0" x2="1" y2="0" gradientUnits="userSpaceOnUse" gradientTransform="matrix(117.369,2.32338,-2.32338,117.369,63.2471,32.4007)"><stop offset="0" style="stop-color:#6dff86;stop-opacity:1"/><stop offset="1" style="stop-color:#91afff;stop-opacity:1"/></linearGradient></defs></svg>