<?xml version="1.0" standalone="no"?>
<!DOCTYPE svg PUBLIC "-//W3C//DTD SVG 20010904//EN"
 "http://www.w3.org/TR/2001/REC-SVG-20010904/DTD/svg10.dtd">
<svg version="1.0" xmlns="http://www.w3.org/2000/svg"
 width="950.000000pt" height="950.000000pt" viewBox="0 0 950.000000 950.000000"
 preserveAspectRatio="xMidYMid meet">
<metadata>
Created by potrace 1.14, written by Peter Selinger 2001-2017
</metadata>
<g transform="translate(0.000000,950.000000) scale(0.100000,-0.100000)"
fill="#000000" stroke="none">
<path d="M7755 9484 c-177 -26 -351 -77 -495 -146 -58 -28 -107 -53 -110 -57
-3 -3 -21 -15 -40 -25 -34 -20 -47 -28 -75 -53 -7 -7 -16 -13 -20 -13 -4 0
-12 -6 -20 -12 -7 -7 -28 -24 -46 -38 -18 -14 -75 -68 -127 -120 -118 -121
-122 -125 -122 -137 0 -6 -7 -13 -15 -17 -8 -3 -15 -10 -15 -16 0 -6 -9 -20
-20 -32 -11 -12 -20 -28 -20 -35 0 -7 -4 -13 -9 -13 -5 0 -14 -14 -22 -32 -7
-17 -15 -26 -17 -20 -2 7 -8 10 -13 6 -5 -3 -9 0 -9 6 0 6 -4 9 -9 5 -5 -3
-12 -1 -16 5 -3 5 -15 10 -26 10 -10 0 -19 5 -19 11 0 5 -4 7 -10 4 -5 -3 -10
-1 -10 4 0 6 -3 10 -7 9 -5 -1 -21 5 -38 12 -16 7 -33 13 -37 12 -5 -1 -8 3
-8 9 0 5 -4 8 -9 5 -5 -3 -14 1 -21 9 -6 7 -18 11 -26 8 -8 -3 -14 1 -14 8 0
7 -3 9 -6 6 -4 -3 -16 -1 -28 5 -11 7 -27 13 -35 14 -8 2 -17 6 -20 11 -3 4
-10 8 -16 9 -24 3 -55 17 -55 26 0 5 -4 6 -10 3 -5 -3 -10 -1 -10 5 0 7 -6 10
-14 7 -8 -3 -25 2 -38 12 -13 10 -29 16 -35 14 -7 -3 -13 0 -13 7 0 6 -4 9 -9
5 -5 -3 -15 0 -23 7 -7 7 -22 15 -33 16 -11 2 -22 7 -25 10 -3 4 -12 8 -20 9
-9 2 -33 12 -55 23 -22 11 -45 20 -52 20 -7 0 -13 5 -13 11 0 5 -4 8 -8 5 -5
-3 -20 1 -35 9 -54 28 -566 224 -687 263 -294 95 -345 97 -579 26 -91 -28
-375 -127 -426 -149 -16 -7 -46 -18 -65 -25 -35 -13 -126 -50 -187 -76 -17 -8
-38 -14 -47 -14 -9 0 -16 -4 -16 -10 0 -5 -6 -10 -14 -10 -7 0 -31 -8 -52 -17
-22 -9 -42 -16 -47 -15 -4 1 -7 -2 -7 -7 0 -8 -55 -24 -63 -18 -2 1 -11 -6
-21 -16 -10 -9 -21 -15 -26 -12 -5 3 -10 0 -12 -5 -2 -6 -13 -12 -26 -13 -12
0 -22 -5 -22 -10 0 -4 -4 -5 -10 -2 -5 3 -10 1 -10 -6 0 -7 -3 -9 -7 -6 -3 4
-12 2 -20 -4 -7 -6 -13 -8 -13 -3 0 5 -4 3 -8 -3 -4 -7 -17 -14 -29 -16 -12
-1 -28 -9 -36 -15 -8 -7 -25 -15 -37 -17 -12 -2 -33 -11 -46 -20 -13 -8 -24
-13 -24 -10 0 3 -10 0 -22 -7 -13 -7 -26 -11 -30 -10 -5 1 -8 -3 -8 -9 0 -5
-5 -7 -10 -4 -5 3 -10 1 -10 -6 0 -7 -3 -10 -6 -6 -4 3 -21 -1 -38 -11 -17 -9
-36 -17 -42 -17 -6 0 -19 -6 -28 -14 -9 -7 -16 -10 -16 -5 0 5 -4 3 -9 -4 -4
-7 -14 -14 -22 -15 -8 -2 -20 -6 -26 -10 -7 -5 -13 -5 -13 -2 0 4 -7 -1 -16
-10 -15 -15 -18 -14 -32 7 -9 13 -18 25 -21 28 -4 3 -12 17 -20 33 -8 15 -18
27 -23 27 -4 0 -8 7 -8 15 0 9 -7 18 -15 21 -8 4 -15 10 -15 15 0 17 -159 184
-224 234 -21 17 -50 40 -65 53 -14 13 -39 30 -56 39 -16 9 -32 19 -35 23 -3 4
-57 35 -121 69 -354 185 -767 229 -1152 121 -59 -16 -129 -39 -155 -50 -79
-35 -252 -124 -252 -131 0 -4 -14 -12 -30 -19 -17 -7 -30 -16 -30 -21 0 -5 -5
-9 -11 -9 -6 0 -17 -6 -24 -12 -8 -7 -29 -24 -47 -38 -54 -42 -257 -250 -263
-271 -4 -10 -10 -19 -14 -19 -10 0 -91 -124 -91 -138 0 -6 -4 -12 -9 -14 -15
-5 -107 -208 -135 -295 -56 -178 -70 -273 -70 -478 -1 -202 9 -278 59 -449 26
-90 110 -289 130 -310 7 -6 16 -22 19 -34 4 -12 12 -22 17 -22 5 0 9 -5 9 -12
0 -14 48 -87 72 -109 10 -9 18 -21 18 -26 0 -13 214 -230 253 -258 16 -11 38
-28 49 -37 11 -10 28 -20 38 -23 10 -3 21 -13 24 -21 3 -8 10 -12 16 -9 5 3
10 1 10 -4 0 -6 5 -11 10 -11 6 0 19 -8 30 -18 17 -16 18 -21 6 -44 -8 -15
-12 -29 -8 -32 3 -3 0 -6 -6 -6 -7 0 -11 -3 -10 -7 1 -5 -5 -22 -15 -39 -9
-17 -13 -34 -10 -38 4 -3 1 -6 -5 -6 -7 0 -12 -3 -11 -7 2 -16 -14 -53 -23
-53 -6 0 -8 -7 -4 -15 3 -8 1 -15 -5 -15 -6 0 -7 -4 -4 -10 3 -5 1 -10 -5 -10
-6 0 -8 -4 -5 -10 3 -5 1 -10 -5 -10 -6 0 -9 -4 -5 -9 3 -5 1 -12 -5 -16 -5
-3 -10 -15 -10 -26 0 -10 -5 -19 -11 -19 -5 0 -7 -4 -4 -10 3 -5 2 -10 -2 -10
-5 0 -9 -10 -10 -22 -1 -11 -8 -25 -15 -29 -7 -5 -9 -9 -4 -9 5 0 3 -6 -3 -13
-6 -8 -8 -17 -4 -20 3 -4 1 -7 -6 -7 -7 0 -10 -4 -6 -9 3 -5 1 -12 -5 -16 -5
-3 -10 -15 -10 -26 0 -10 -5 -19 -11 -19 -5 0 -7 -4 -4 -10 3 -5 1 -10 -5 -10
-6 0 -9 -4 -5 -9 3 -5 1 -12 -5 -16 -5 -3 -10 -15 -10 -26 0 -10 -3 -19 -8
-19 -4 0 -12 -17 -19 -37 -6 -21 -24 -65 -39 -98 -15 -33 -28 -64 -29 -70 0
-5 -9 -28 -19 -50 -38 -85 -196 -516 -231 -630 -56 -186 -57 -248 -5 -467 23
-98 73 -282 111 -410 38 -128 71 -239 73 -248 2 -8 6 -22 9 -30 28 -67 94
-282 88 -289 -1 -2 2 -7 8 -10 5 -4 12 -18 15 -33 2 -14 9 -36 16 -47 6 -12 8
-26 5 -31 -3 -6 -2 -10 3 -10 6 0 13 -17 17 -38 4 -20 11 -42 17 -49 5 -7 7
-17 3 -23 -3 -5 -1 -10 5 -10 6 0 9 -4 5 -9 -3 -5 -1 -12 5 -16 6 -4 8 -10 5
-15 -3 -5 -1 -11 5 -15 6 -4 8 -11 5 -16 -4 -5 -2 -9 3 -9 9 0 26 -53 25 -77
0 -7 4 -13 10 -13 6 0 7 -3 4 -7 -4 -3 -2 -12 4 -20 6 -7 9 -13 5 -13 -4 0 0
-14 9 -30 9 -17 13 -30 9 -30 -4 0 -1 -7 6 -15 7 -8 9 -15 5 -15 -4 0 -2 -6 4
-13 6 -8 8 -17 4 -20 -3 -4 0 -7 7 -7 7 0 10 -3 7 -7 -4 -3 -2 -12 4 -20 6 -7
8 -13 4 -13 -4 0 -2 -7 5 -15 6 -8 9 -19 5 -25 -3 -5 -1 -10 4 -10 6 0 11 -10
11 -23 0 -13 5 -28 12 -35 7 -7 9 -12 5 -12 -4 0 -2 -10 5 -22 7 -13 13 -26
14 -30 1 -5 3 -10 4 -13 1 -3 3 -8 5 -12 1 -5 5 -16 8 -25 4 -10 10 -26 14
-35 3 -10 7 -20 7 -23 1 -3 5 -11 9 -17 5 -7 5 -17 2 -23 -3 -5 -1 -10 5 -10
6 0 8 -4 5 -10 -3 -5 -1 -10 5 -10 6 0 9 -4 5 -9 -3 -5 -1 -12 5 -16 6 -4 8
-10 5 -15 -3 -5 -1 -11 5 -15 6 -4 7 -11 4 -17 -4 -6 -1 -14 5 -18 7 -4 14
-16 16 -26 2 -10 4 -19 5 -19 1 0 3 -7 5 -15 6 -28 68 -185 76 -195 5 -5 9
-15 9 -22 0 -8 7 -30 17 -51 9 -20 17 -39 18 -42 1 -3 7 -18 13 -33 7 -16 12
-31 12 -34 0 -5 8 -25 49 -115 11 -26 21 -51 21 -54 0 -7 8 -25 77 -171 15
-32 25 -58 24 -58 -2 0 13 -33 33 -73 21 -39 42 -72 47 -72 6 0 8 -4 5 -8 -14
-23 130 -183 179 -198 11 -4 22 -10 25 -14 8 -11 100 -62 100 -55 0 3 15 -5
33 -18 43 -32 257 -140 257 -130 0 4 4 2 9 -5 4 -7 14 -15 22 -16 8 -2 46 -18
84 -36 39 -18 76 -33 83 -33 6 0 12 -4 12 -7 0 -6 55 -34 70 -35 3 -1 37 -16
75 -34 62 -29 110 -51 125 -56 3 -1 23 -10 45 -20 22 -10 42 -19 45 -20 10 -2
106 -46 132 -61 16 -8 28 -12 28 -8 0 3 10 0 23 -8 12 -8 39 -20 60 -27 20 -7
37 -17 37 -22 0 -5 3 -8 8 -8 16 3 72 -14 72 -22 0 -5 3 -8 8 -7 4 1 17 -3 30
-10 12 -7 22 -9 22 -5 0 4 5 2 12 -5 7 -7 20 -12 30 -12 10 0 18 -5 18 -12 0
-6 3 -9 6 -5 4 3 25 -4 48 -15 22 -12 47 -21 54 -20 6 2 12 -2 12 -8 0 -6 4
-9 9 -5 5 3 16 -1 24 -9 8 -8 17 -12 21 -9 3 3 11 1 18 -4 7 -6 25 -13 41 -17
15 -3 27 -11 27 -17 0 -6 4 -8 9 -4 5 3 12 1 16 -5 4 -6 11 -8 16 -5 5 4 9 1
9 -5 0 -6 4 -8 10 -5 6 3 10 1 10 -5 0 -6 4 -8 10 -5 5 3 24 -2 42 -12 18 -9
35 -18 38 -18 40 -10 60 -19 60 -26 0 -5 7 -6 15 -3 8 4 15 1 15 -6 0 -6 5 -8
10 -5 5 3 10 1 10 -5 0 -6 3 -9 8 -6 4 2 23 -3 42 -12 19 -8 38 -16 43 -17 4
-2 8 -3 10 -5 1 -1 11 -3 22 -5 10 -2 28 -8 40 -14 37 -18 251 -100 420 -161
50 -18 110 -40 135 -50 68 -27 314 -106 410 -131 124 -33 245 -31 375 5 218
60 847 280 882 308 7 5 17 7 23 3 5 -3 10 -3 10 2 0 7 24 17 85 37 6 2 28 11
50 21 22 9 45 18 50 19 6 1 27 10 47 20 20 10 42 19 50 20 7 1 23 8 36 14 12
7 22 10 22 6 0 -3 6 -1 13 5 8 6 17 8 20 4 4 -3 7 -1 7 5 0 7 8 12 18 12 10 0
23 5 30 12 7 7 12 9 12 4 0 -4 10 0 21 8 12 8 28 12 35 9 8 -3 14 0 14 6 0 6
6 11 13 11 7 0 30 9 52 20 21 11 41 18 43 15 2 -2 11 3 19 11 9 8 20 13 27 11
6 -2 17 2 24 10 8 7 18 11 23 8 5 -4 9 -1 9 5 0 6 4 9 9 5 5 -3 12 -1 16 5 4
6 11 8 16 5 5 -4 9 -1 9 4 0 6 3 10 8 9 4 -1 21 5 37 12 17 7 32 14 35 15 3 1
21 9 40 17 61 26 75 31 83 30 4 -1 7 2 7 8 0 6 3 9 8 8 9 -2 31 7 187 77 55
24 110 48 115 50 22 8 94 39 192 84 26 11 52 21 57 21 6 0 11 5 11 10 0 6 3 9
8 8 12 -3 132 55 132 63 0 5 7 6 15 3 8 -4 15 -1 15 7 0 7 3 10 6 6 7 -6 296
136 389 192 33 20 72 43 87 51 45 25 109 83 138 125 41 60 82 135 73 135 -4 0
-3 4 3 8 13 8 77 132 68 132 -3 0 2 7 10 16 14 13 17 24 16 49 -1 3 6 13 15
21 8 9 15 22 15 30 0 8 4 22 10 32 5 9 19 40 30 67 11 28 25 58 31 68 5 10 7
22 4 27 -3 4 0 10 5 12 6 2 12 10 14 18 1 8 7 25 14 37 7 12 13 30 15 40 2 10
11 36 21 58 10 22 19 45 20 50 2 6 11 28 20 49 10 22 20 48 22 59 2 10 8 24
13 31 5 6 12 23 15 38 2 14 11 39 20 56 8 16 12 32 9 36 -4 3 -1 6 6 6 7 0 10
4 7 8 -3 5 1 20 9 35 8 15 12 27 10 27 -2 0 2 12 10 27 8 15 12 30 9 35 -3 4
0 8 6 8 6 0 9 4 5 9 -3 5 -1 12 5 16 6 4 8 10 5 15 -3 5 -1 11 5 15 6 4 8 11
5 16 -4 5 -2 9 4 9 6 0 8 7 5 15 -4 8 -1 15 5 15 6 0 8 6 5 13 -3 8 2 19 10
26 8 7 12 19 9 27 -3 8 0 14 7 14 7 0 10 7 6 15 -3 8 -1 15 5 15 6 0 7 4 4 10
-3 5 1 20 10 33 8 13 12 27 8 30 -3 4 -1 7 6 7 7 0 9 5 6 10 -4 6 -1 17 5 25
7 8 9 15 5 15 -4 0 -2 7 5 15 7 8 9 15 5 15 -4 0 -2 6 4 13 6 8 8 17 4 20 -3
4 -1 7 6 7 7 0 9 4 6 10 -3 5 0 20 7 32 7 13 11 26 10 31 -1 4 2 7 8 7 5 0 7
7 4 15 -4 8 -1 15 5 15 6 0 8 7 5 15 -4 8 -1 15 5 15 6 0 8 7 5 15 -4 8 -1 15
5 15 6 0 8 7 5 15 -4 8 -2 15 3 15 5 0 9 10 10 22 1 11 8 25 15 29 7 4 9 11 5
15 -4 4 -2 13 4 21 6 7 8 13 4 13 -4 0 -2 7 5 15 7 8 9 15 5 15 -4 0 -2 7 5
15 7 8 9 15 5 15 -4 0 -2 6 4 13 6 8 8 17 4 20 -3 4 -1 7 6 7 7 0 9 5 6 10 -4
6 -1 17 5 25 7 8 9 15 5 15 -4 0 -2 7 5 15 7 8 9 15 5 15 -4 0 -2 6 4 13 6 8
8 17 4 20 -3 4 0 7 7 7 7 0 11 3 7 6 -5 5 10 58 30 104 3 8 7 22 9 30 2 8 35
119 74 245 124 400 187 645 197 756 3 36 0 97 -6 135 -13 75 -150 497 -163
502 -4 2 -8 9 -8 15 0 6 -36 102 -80 213 -44 110 -80 206 -80 212 0 7 -4 12
-10 12 -5 0 -10 4 -10 9 0 5 -5 22 -12 38 -6 15 -12 31 -13 36 -2 4 -4 10 -5
15 -1 4 -2 10 -1 15 0 4 -3 7 -7 7 -4 0 -16 26 -27 58 -11 31 -22 59 -26 62
-4 3 -9 14 -11 25 -1 11 -9 26 -16 33 -7 8 -10 18 -7 23 4 5 1 9 -5 9 -6 0 -8
5 -4 11 3 6 3 14 -2 18 -16 11 -35 52 -29 61 4 6 2 10 -3 10 -9 0 -25 37 -23
53 1 4 -3 7 -7 7 -4 0 -9 10 -9 22 -1 13 -7 24 -13 26 -5 2 -8 8 -4 13 3 5 0
9 -5 9 -6 0 -11 9 -11 19 0 11 -5 23 -10 26 -6 4 -8 10 -5 15 3 4 -2 13 -10
20 -8 7 -12 16 -9 21 3 5 0 9 -7 9 -7 0 -9 3 -6 7 4 3 2 12 -4 19 -8 10 0 21
33 44 24 18 53 37 66 43 12 5 22 14 22 19 0 4 7 8 15 8 8 0 15 5 15 10 0 6 5
10 11 10 24 0 218 181 279 260 14 17 30 38 36 44 23 24 124 178 124 189 0 6 6
18 14 26 28 32 108 239 136 351 40 162 54 289 47 444 -10 229 -65 444 -164
640 -26 50 -49 93 -53 96 -3 3 -14 22 -23 43 -10 20 -22 37 -27 37 -6 0 -10 7
-10 15 0 8 -4 15 -9 15 -5 0 -12 8 -15 18 -3 9 -29 41 -56 69 -28 29 -50 56
-50 59 0 3 -24 28 -52 55 -29 27 -65 60 -80 74 -15 14 -29 25 -33 25 -3 0 -17
10 -30 23 -40 37 -54 47 -65 47 -5 0 -10 5 -10 10 0 6 -7 10 -15 10 -8 0 -15
4 -15 8 0 5 -30 24 -67 43 -38 19 -69 37 -71 42 -2 4 -7 7 -12 7 -5 0 -37 13
-72 29 -186 87 -355 122 -598 126 -102 2 -198 1 -215 -1z"/>
</g>
</svg>
